<svg width="88" height="88" viewBox="0 0 88 88" fill="none" xmlns="http://www.w3.org/2000/svg">
<path d="M35.4748 50.2333L38.6832 39.7833L30.2498 32.9999H40.6998L43.9998 22.7333L47.2998 32.9999H57.7498L49.2248 39.7833L52.4332 50.2333L43.9998 43.7249L35.4748 50.2333ZM21.9998 84.3333V56.0083C19.6776 53.4416 17.8748 50.5083 16.5915 47.2083C15.3082 43.9083 14.6665 40.3944 14.6665 36.6666C14.6665 28.4777 17.5082 21.5416 23.1915 15.8583C28.8748 10.1749 35.8109 7.33325 43.9998 7.33325C52.1887 7.33325 59.1248 10.1749 64.8082 15.8583C70.4915 21.5416 73.3332 28.4777 73.3332 36.6666C73.3332 40.3944 72.6915 43.9083 71.4082 47.2083C70.1248 50.5083 68.3221 53.4416 65.9998 56.0083V84.3333L43.9998 76.9999L21.9998 84.3333ZM43.9998 58.6666C50.1109 58.6666 55.3054 56.5277 59.5832 52.2499C63.8609 47.9721 65.9998 42.7777 65.9998 36.6666C65.9998 30.5555 63.8609 25.361 59.5832 21.0833C55.3054 16.8055 50.1109 14.6666 43.9998 14.6666C37.8887 14.6666 32.6943 16.8055 28.4165 21.0833C24.1387 25.361 21.9998 30.5555 21.9998 36.6666C21.9998 42.7777 24.1387 47.9721 28.4165 52.2499C32.6943 56.5277 37.8887 58.6666 43.9998 58.6666ZM29.3332 73.4249L43.9998 69.6666L58.6665 73.4249V62.0583C56.5276 63.2805 54.2207 64.243 51.7457 64.9458C49.2707 65.6485 46.6887 65.9999 43.9998 65.9999C41.3109 65.9999 38.729 65.6485 36.254 64.9458C33.779 64.243 31.4721 63.2805 29.3332 62.0583V73.4249Z" fill="white"/>
</svg>
